<svg width="1003px" height="486px" viewBox="234 414 1003 486" version="1.1" xmlns="http://www.w3.org/2000/svg" xmlns:xlink="http://www.w3.org/1999/xlink">
    <!-- Generator: Sketch 3.7.2 (28276) - http://www.bohemiancoding.com/sketch -->
    <desc>Created with Sketch.</desc>
    <defs></defs>
    <g id="about_disctiption1" stroke="none" stroke-width="1" fill="none" fill-rule="evenodd" transform="translate(234.000000, 414.000000)">
        <g id="arrow" transform="translate(0.000000, 7.000000)">
            <path d="M0,3 C0,1.34314575 1.3508844,8.11458913e-14 3.00918211,6.96837717e-14 L6.41938932,4.61124897e-14 C8.08131471,3.46252957e-14 9.42857143,1.34651712 9.42857143,3 L9.42857143,3 C9.42857143,4.65685425 8.07768703,6 6.41938932,6 L3.00918211,6 C1.34725672,6 0,4.65348288 0,3 L0,3 Z" id="Rectangle-35" fill="#006BBF"></path>
            <path d="M3.68989144,3 C3.68989144,3 7.71319293,3 12.6941365,3 L749.509449,3 C760.003456,3 776.16124,6.7063855 785.249538,11.9606213 C785.249538,11.9606213 833.674473,29.8913102 833.674473,86.2226246 C833.674473,142.553939 785.15442,161.150214 785.15442,161.150214 C775.962253,166.180922 760.013318,170.259117 749.519896,170.259117 L262.714059,170.259115 C246.143705,170.259115 222.727749,179.245908 211.087887,191.021396 C211.087887,191.021396 176.050516,216.992537 176.050516,256.3936 C176.050516,295.794664 214.226695,323.773007 214.226695,323.773007 C224.435172,333.054255 243.904714,340.578192 257.711907,340.578192 L965.173455,340.578192" id="Path-20" stroke="#006BBF" stroke-width="6"></path>
            <polygon id="Triangle-1" fill="#006BBF" transform="translate(983.593146, 340.578192) rotate(-270.000000) translate(-983.593146, -340.578192) " points="983.593146 322.158501 1002.00315 358.997883 965.183146 358.997883"></polygon>
        </g>
        <g id="line3" transform="translate(314.000000, 337.000000)" fill="#FFFFFF">
            <text id="2016-May." font-family="HiraginoSans-W6, Hiragino Sans" font-size="18" font-weight="500" letter-spacing="1.3499999">
                <tspan x="438" y="51">2016 May.</tspan>
                <tspan x="551.849999" y="51" font-family="HiraginoSans-W3, Hiragino Sans" font-weight="300"></tspan>
                <tspan x="438" y="69" font-size="6" letter-spacing="0.45"> </tspan>
                <tspan x="440.448" y="69" font-family="HiraginoSans-W3, Hiragino Sans" font-weight="300"></tspan>
                <tspan x="438" y="75" font-family="HiraginoSans-W3, Hiragino Sans" font-weight="300">WebGLスクールに通</tspan>
                <tspan x="438" y="93" font-family="HiraginoSans-W3, Hiragino Sans" font-weight="300">う予定</tspan>
                <tspan x="438" y="111" font-family="HiraginoSans-W3, Hiragino Sans" font-weight="300">3DCGを自分で描け</tspan>
                <tspan x="438" y="129" font-family="HiraginoSans-W3, Hiragino Sans" font-weight="300">るようになることが</tspan>
                <tspan x="438" y="147" font-family="HiraginoSans-W3, Hiragino Sans" font-weight="300">目標</tspan>
            </text>
            <text id="2016-Apr." font-family="HiraginoSans-W6, Hiragino Sans" font-size="18" font-weight="500" letter-spacing="1.3499999">
                <tspan x="219" y="51">2016 Apr.</tspan>
                <tspan x="219" y="69" font-size="6" letter-spacing="0.45"> </tspan>
                <tspan x="221.448" y="69" font-family="HiraginoSans-W3, Hiragino Sans" font-weight="300"></tspan>
                <tspan x="219" y="75" font-family="HiraginoSans-W3, Hiragino Sans" font-weight="300">デザインスクールに</tspan>
                <tspan x="219" y="93" font-family="HiraginoSans-W3, Hiragino Sans" font-weight="300">通う</tspan>
                <tspan x="219" y="111" font-family="HiraginoSans-W3, Hiragino Sans" font-weight="300">Psなどのソフトの使</tspan>
                <tspan x="219" y="129" font-family="HiraginoSans-W3, Hiragino Sans" font-weight="300">い方やデザインのル</tspan>
                <tspan x="219" y="147" font-family="HiraginoSans-W3, Hiragino Sans" font-weight="300">ールを学ぶ</tspan>
            </text>
            <text id="2016-Mar." font-family="HiraginoSans-W6, Hiragino Sans" font-size="18" font-weight="500" letter-spacing="1.3499999">
                <tspan x="0" y="51">2016 Mar.</tspan>
                <tspan x="110.681999" y="51" font-family="HiraginoSans-W3, Hiragino Sans" font-weight="300"></tspan>
                <tspan x="0" y="69" font-size="6" letter-spacing="0.45"> </tspan>
                <tspan x="2.448" y="69" font-family="HiraginoSans-W3, Hiragino Sans" font-weight="300"></tspan>
                <tspan x="0" y="75" font-family="HiraginoSans-W3, Hiragino Sans" font-weight="300">DailyWorksを始め</tspan>
                <tspan x="0" y="93" font-family="HiraginoSans-W3, Hiragino Sans" font-weight="300">る</tspan>
                <tspan x="0" y="111" font-family="HiraginoSans-W3, Hiragino Sans" font-weight="300">目標はGitHubの画面</tspan>
                <tspan x="0" y="129" font-family="HiraginoSans-W3, Hiragino Sans" font-weight="300">を緑1色にすること</tspan>
            </text>
            <polygon id="Star-1" points="8.55950865 13.5 3.26944138 16.2811529 4.27975432 10.3905765 0 6.21884705 5.91447501 5.35942353 8.55950865 0 11.2045423 5.35942353 17.1190173 6.21884705 12.839263 10.3905765 13.8495759 16.2811529"></polygon>
            <polygon id="Star-1" points="228 13.5 222.709933 16.2811529 223.720246 10.3905765 219.440491 6.21884705 225.354966 5.35942353 228 0 230.645034 5.35942353 236.559509 6.21884705 232.279754 10.3905765 233.290067 16.2811529"></polygon>
            <polygon id="Star-1" points="447 13.5 441.709933 16.2811529 442.720246 10.3905765 438.440491 6.21884705 444.354966 5.35942353 447 0 449.645034 5.35942353 455.559509 6.21884705 451.279754 10.3905765 452.290067 16.2811529"></polygon>
        </g>
        <g id="line2" transform="translate(248.000000, 162.000000)">
            <text id="2015-Dec." font-family="HiraginoSans-W6, Hiragino Sans" font-size="18" font-weight="500" letter-spacing="1.3499999" fill="#FFFFFF">
                <tspan x="219" y="57">2015 Dec.</tspan>
                <tspan x="219" y="75" font-size="6" letter-spacing="0.45"> </tspan>
                <tspan x="219" y="81" font-family="HiraginoSans-W3, Hiragino Sans" font-weight="300">プログラミングスク</tspan>
                <tspan x="219" y="99" font-family="HiraginoSans-W3, Hiragino Sans" font-weight="300">ールに通う</tspan>
                <tspan x="219" y="117" font-family="HiraginoSans-W3, Hiragino Sans" font-weight="300">オリジナルのWebア</tspan>
                <tspan x="219" y="135" font-family="HiraginoSans-W3, Hiragino Sans" font-weight="300">プリを開発する</tspan>
            </text>
            <text id="2016-Feb." font-family="HiraginoSans-W6, Hiragino Sans" font-size="18" font-weight="500" letter-spacing="1.3499999" fill="#FFFFFF">
                <tspan x="0" y="57">2016 Feb.</tspan>
                <tspan x="110.033999" y="57" font-family="HiraginoSans-W3, Hiragino Sans" font-weight="300"></tspan>
                <tspan x="0" y="75" font-size="6" letter-spacing="0.45"> </tspan>
                <tspan x="2.448" y="75" font-family="HiraginoSans-W3, Hiragino Sans" font-weight="300"></tspan>
                <tspan x="0" y="81" font-family="HiraginoSans-W3, Hiragino Sans" font-weight="300">勉強会に初めて参加</tspan>
                <tspan x="0" y="99" font-family="HiraginoSans-W3, Hiragino Sans" font-weight="300">する</tspan>
                <tspan x="0" y="117" font-family="HiraginoSans-W3, Hiragino Sans" font-weight="300">以後、月に5回前後の</tspan>
                <tspan x="0" y="135" font-family="HiraginoSans-W3, Hiragino Sans" font-weight="300">ペースで参加</tspan>
            </text>
            <text id="2015-Mar." font-family="HiraginoSans-W6, Hiragino Sans" font-size="18" font-weight="500" letter-spacing="1.3499999" fill="#FFFFFF">
                <tspan x="438" y="61">2015 Mar.</tspan>
                <tspan x="548.681999" y="61" font-family="HiraginoSans-W3, Hiragino Sans" font-weight="300"></tspan>
                <tspan x="438" y="79" font-size="6" letter-spacing="0.45"> </tspan>
                <tspan x="440.448" y="79" font-family="HiraginoSans-W3, Hiragino Sans" font-weight="300"></tspan>
                <tspan x="438" y="85" font-family="HiraginoSans-W3, Hiragino Sans" font-weight="300">JavaScriptを勉強</tspan>
                <tspan x="438" y="103" font-family="HiraginoSans-W3, Hiragino Sans" font-weight="300">DOMやオブジェクト</tspan>
                <tspan x="438" y="121" font-family="HiraginoSans-W3, Hiragino Sans" font-weight="300">指向が分からず挫折</tspan>
            </text>
            <polygon id="Star-1" fill="#FFFFFF" points="9 18.5 3.70993273 21.2811529 4.72024568 15.3905765 0.440491353 11.2188471 6.35496636 10.3594235 9 5 11.6450336 10.3594235 17.5595086 11.2188471 13.2797543 15.3905765 14.2900673 21.2811529"></polygon>
            <polygon id="Star-1" fill="#BBA80D" points="233.56 22.9639356 224.561425 27.6947666 226.28 17.6747059 219 10.5784595 229.060713 9.11655236 233.56 0 238.059288 9.11655236 248.120001 10.5784595 240.840001 17.6747059 242.558576 27.6947666"></polygon>
            <polygon id="Star-1" fill="#FFFFFF" points="447 18.5 441.709933 21.2811529 442.720246 15.3905765 438.440491 11.2188471 444.354966 10.3594235 447 5 449.645034 10.3594235 455.559509 11.2188471 451.279754 15.3905765 452.290067 21.2811529"></polygon>
        </g>
        <g id="line1" transform="translate(95.000000, 0.000000)" fill="#FFFFFF">
            <text id="2013-Apr." font-family="HiraginoSans-W6, Hiragino Sans" font-size="18" font-weight="500" letter-spacing="1.35">
                <tspan x="0" y="53">2013 </tspan>
                <tspan x="64.008" y="53" letter-spacing="1.35000002">Apr.</tspan>
                <tspan x="0" y="71" font-size="6" letter-spacing="0.449999928"> </tspan>
                <tspan x="2.44799993" y="71" letter-spacing="1.21500003"></tspan>
                <tspan x="0" y="73" font-family="HiraginoSans-W3, Hiragino Sans" font-weight="300" line-spacing="18" letter-spacing="1.51875007">SI</tspan>
                <tspan x="19.5615001" y="73" font-family="HiraginoSans-W3, Hiragino Sans" font-weight="300" line-spacing="18" letter-spacing="1.51875007">企業に入社</tspan>
                <tspan x="0" y="91" font-family="HiraginoSans-W3, Hiragino Sans" font-weight="300" line-spacing="18" letter-spacing="1.51875007">プログラミングを初</tspan>
                <tspan x="0" y="109" font-family="HiraginoSans-W3, Hiragino Sans" font-weight="300" line-spacing="18" letter-spacing="1.51875007">めて行う</tspan>
            </text>
            <text id="2013-Nov.-" font-family="HiraginoSans-W6, Hiragino Sans" font-size="18" font-weight="500" letter-spacing="1.3499999">
                <tspan x="219" y="53">2013 Nov.</tspan>
                <tspan x="331.283999" y="53" font-size="10" letter-spacing="0.75"> </tspan>
                <tspan x="335.363999" y="53" font-size="10" letter-spacing="0.666666687"></tspan>
                <tspan x="219" y="71" font-size="6" letter-spacing="0.45"> </tspan>
                <tspan x="219" y="77" font-family="HiraginoSans-W3, Hiragino Sans" font-weight="300" letter-spacing="1.27894723">Objective-Cを勉強</tspan>
                <tspan x="219" y="95" font-family="HiraginoSans-W3, Hiragino Sans" font-weight="300" letter-spacing="1.27894723">C言語が分からず挫折</tspan>
            </text>
            <text id="2014-Jun." font-family="HiraginoSans-W6, Hiragino Sans" font-size="18" font-weight="500" letter-spacing="1.3499999">
                <tspan x="438" y="53">2014 Jun.</tspan>
                <tspan x="547.133999" y="53" font-family="HiraginoSans-W3, Hiragino Sans" font-weight="300"></tspan>
                <tspan x="438" y="71" font-size="6" letter-spacing="0.45"> </tspan>
                <tspan x="440.448" y="71" font-family="HiraginoSans-W3, Hiragino Sans" font-weight="300"></tspan>
                <tspan x="438" y="77" font-family="HiraginoSans-W3, Hiragino Sans" font-weight="300">HTML/CSSを勉強</tspan>
                <tspan x="438" y="95" font-family="HiraginoSans-W3, Hiragino Sans" font-weight="300">本通りに写経しただ</tspan>
                <tspan x="438" y="113" font-family="HiraginoSans-W3, Hiragino Sans" font-weight="300">けでやめてしまう</tspan>
            </text>
            <polygon id="Star-1" points="9 13.5 3.70993273 16.2811529 4.72024568 10.3905765 0.440491353 6.21884705 6.35496636 5.35942353 9 0 11.6450336 5.35942353 17.5595086 6.21884705 13.2797543 10.3905765 14.2900673 16.2811529"></polygon>
            <polygon id="Star-1" points="228 13.5 222.709933 16.2811529 223.720246 10.3905765 219.440491 6.21884705 225.354966 5.35942353 228 0 230.645034 5.35942353 236.559509 6.21884705 232.279754 10.3905765 233.290067 16.2811529"></polygon>
            <polygon id="Star-1" points="447 13.5 441.709933 16.2811529 442.720246 10.3905765 438.440491 6.21884705 444.354966 5.35942353 447 0 449.645034 5.35942353 455.559509 6.21884705 451.279754 10.3905765 452.290067 16.2811529"></polygon>
        </g>
    </g>
</svg>
